<svg width="52" height="36" viewBox="0 0 52 36" fill="none" xmlns="http://www.w3.org/2000/svg">
<rect width="52" height="36" rx="18" fill="#292929"/>
<g clip-path="url(#clip0_1_1534)">
<path d="M17.6665 18.1699C17.6665 16.2629 17.6665 15.3094 18.0992 14.5189C18.5318 13.7285 19.3223 13.2379 20.9032 12.2567L22.5699 11.2224C24.241 10.1852 25.0766 9.66663 25.9998 9.66663C26.9231 9.66663 27.7587 10.1852 29.4298 11.2224L31.0965 12.2567C32.6774 13.2379 33.4678 13.7285 33.9005 14.5189C34.3332 15.3094 34.3332 16.2629 34.3332 18.1699V19.4374C34.3332 22.6882 34.3332 24.3135 33.3569 25.3234C32.3805 26.3333 30.8092 26.3333 27.6665 26.3333H24.3332C21.1905 26.3333 19.6191 26.3333 18.6428 25.3234C17.6665 24.3135 17.6665 22.6882 17.6665 19.4374V18.1699Z" stroke="white" stroke-width="1.5"/>
<path d="M26 20.5L26 23" stroke="white" stroke-width="1.5" stroke-linecap="round"/>
</g>
<defs>
<clipPath id="clip0_1_1534">
<rect width="20" height="20" fill="white" transform="translate(16 8)"/>
</clipPath>
</defs>
</svg>
